<svg width="146" height="33" viewBox="0 0 146 33" fill="none" xmlns="http://www.w3.org/2000/svg">
<path d="M11.3313 0.916016C12.7729 0.916016 13.7786 1.49259 14.315 2.67967C14.8849 3.86674 15.1531 5.69823 15.1531 8.20804C15.1531 10.7179 14.8514 13.5668 14.2145 16.7211C15.656 16.5176 16.8294 16.4497 17.7681 16.4497C18.7068 16.4497 19.3102 16.4497 19.6119 16.4497C19.6454 16.6532 19.679 16.9246 19.679 17.2976C19.679 17.6707 19.5784 18.2134 19.3772 18.8917C18.5391 18.79 17.6004 18.756 16.5612 18.79C15.5219 18.8239 14.5832 18.8917 13.7451 18.9935C12.8735 22.6225 11.7336 25.675 10.2585 28.0831C9.48748 29.3719 8.58231 30.3894 7.54305 31.1355C6.50378 31.8817 5.36394 32.2209 4.12353 32.2209C2.88312 32.2209 1.87738 31.7799 1.13984 30.8981C0.368771 30.0502 0 28.931 0 27.5743C0 25.5054 0.838116 23.6061 2.48082 21.8085C4.12353 20.011 6.13501 18.6882 8.51526 17.7725C9.2528 14.5843 9.62158 11.3962 9.62158 8.27588C9.62158 6.74964 9.521 5.73215 9.28633 5.18948C9.05166 4.64682 8.74993 4.37549 8.31411 4.37549C7.27485 4.37549 5.79977 4.95207 3.88886 6.13914L2.98369 4.71465C4.02296 3.76499 5.33042 2.91708 6.87255 2.10309C8.41469 1.32301 9.88977 0.916016 11.3313 0.916016ZM2.41377 27.2012C2.41377 27.71 2.51435 28.0831 2.68197 28.3883C2.95017 28.7953 3.28542 28.9988 3.72124 28.9988C4.45878 28.9649 5.22985 28.2187 6.06796 26.7603C6.87255 25.3019 7.54305 23.1991 8.11297 20.4858C6.53731 21.0624 5.19632 22.012 4.09001 23.3008C2.98369 24.5897 2.41377 25.8785 2.41377 27.2012Z" fill="#0097FF"/>
<path d="M14.8179 22.9957C14.8179 21.9782 15.1196 20.2484 15.723 17.8064C16.3265 15.3645 16.6282 13.8721 16.6282 13.2956C16.6282 12.7529 16.1924 12.0067 15.3543 11.091L15.3878 10.6162C16.9634 10.277 19.0755 10.1074 21.6569 10.1074C21.7575 10.4127 21.8245 10.9553 21.8245 11.7693C21.8245 12.5833 21.4893 14.2791 20.8523 16.9246C20.1818 19.5362 19.8801 21.1642 19.8801 21.8086C19.8801 22.453 20.1148 22.7582 20.5841 22.7582C21.2546 22.7582 22.0592 22.5208 22.9308 22.0121C23.0314 21.4355 23.2661 20.3502 23.6349 18.7561C24.473 14.9575 24.9088 12.2781 24.9088 10.6501C25.7134 10.3109 27.1885 10.1413 29.334 10.1413H30.0045C30.0045 11.2606 29.6693 13.4312 29.0323 16.6533C28.3618 19.8754 28.0601 21.7747 28.0601 22.3173C28.0601 22.86 28.1607 23.1652 28.3954 23.1652C28.5295 23.1652 29.1999 22.8939 30.4068 22.3173L31.0773 23.4366C28.9988 25.2002 27.1885 26.0481 25.6128 26.0481C24.8753 26.0481 24.2383 25.8446 23.7019 25.4037C23.1655 24.9628 22.8638 24.4201 22.7967 23.7418C20.9194 25.302 19.1761 26.0821 17.6339 26.0821C16.8293 26.0821 16.1589 25.8107 15.6225 25.2681C15.0861 24.7932 14.8179 24.0132 14.8179 22.9957Z" fill="#0097FF"/>
<path d="M40.7995 18.8914C40.3636 18.1453 40.0284 17.6026 39.7937 17.3313C39.5255 17.0599 39.3244 16.8564 39.1567 16.6869C40.5983 15.0928 41.3023 13.8379 41.3023 12.9221C41.3023 12.7186 41.3023 12.5151 41.2353 12.3456C41.2353 12.3456 41.2353 12.3456 41.2353 12.3116C41.1012 11.6672 40.7659 11.1585 40.1625 10.7515C39.8272 10.5141 39.4585 10.3445 39.0226 10.2088C38.9221 10.1749 38.8215 10.1749 38.7544 10.141C38.2181 10.0053 37.5811 9.9375 36.8435 9.9375C35.3685 9.9375 34.0945 10.2767 33.0217 10.9211C31.9825 11.5655 31.4461 12.4812 31.4461 13.6683C31.4461 14.8554 32.3848 16.4495 34.2957 18.4505C36.2066 20.4516 37.1453 21.9778 37.1453 23.0971C37.1453 23.8432 36.7094 24.2502 35.8378 24.352C35.1003 22.4527 34.128 21.0621 32.9547 20.2142C32.3848 20.3838 31.7143 20.8247 30.8762 21.5708C30.038 22.317 29.6357 22.8597 29.6357 23.1988C29.6357 23.7415 30.1051 24.352 31.0773 25.0642C32.0495 25.7765 33.357 26.1156 35.0332 26.1156C36.6759 26.1156 38.1845 25.6408 39.4585 24.6911C40.7659 23.7415 41.4029 22.5205 41.4029 21.0282C41.4364 20.3838 41.2017 19.6715 40.7995 18.8914ZM38.0504 15.4659L37.514 14.991C36.4748 14.0414 35.9719 13.3291 35.9719 12.7865C35.9719 12.5151 36.1395 12.2438 36.5083 12.0403C36.81 11.8707 37.1453 11.7351 37.5476 11.7351C37.6481 11.7351 37.7487 11.7351 37.8493 11.7351C38.6874 11.7351 39.1903 11.9725 39.4249 12.4134C39.4249 12.4134 39.4249 12.4134 39.4249 12.4473C39.492 12.6169 39.5255 12.7865 39.5255 12.99C39.5255 13.7701 39.0562 14.618 38.0504 15.4659Z" fill="#0097FF"/>
<path d="M49.4489 12.0403C50.2535 12.0403 51.0916 12.0743 51.9632 12.176C52.2985 11.3959 52.4996 10.7176 52.5667 10.1071H49.1472C49.5495 8.13995 49.7506 6.81721 49.7506 6.10496C49.7506 5.39272 49.7171 4.81614 49.6165 4.34131C48.0073 4.34131 46.2976 4.64656 44.4537 5.29097V5.39272L44.4872 6.47804C44.4872 7.6312 44.3867 8.81828 44.2191 10.1071C44.1185 10.1071 44.0514 10.1071 43.9509 10.1071C43.0792 10.1749 42.174 10.2088 41.2689 10.2428C40.4978 10.2767 39.7603 10.2428 38.9892 10.2088C38.9557 10.2088 38.9557 10.2088 38.9222 10.2088C38.8551 10.2088 38.4528 10.1749 38.084 10.141C37.6817 10.1071 37.313 10.0732 37.313 10.1071C37.2459 10.4123 37.2124 10.8193 37.2124 11.2942C37.2124 11.4298 37.2124 11.5655 37.2124 11.6673C37.3465 11.6673 37.4471 11.6673 37.5476 11.6673C37.6482 11.6673 37.7488 11.6673 37.8494 11.6673C38.6875 11.6673 39.1904 11.9047 39.425 12.3456C39.7938 12.3456 40.1961 12.3117 40.5984 12.3117C40.7995 12.3117 41.0342 12.3117 41.2354 12.2778C42.4422 12.2438 43.5821 12.2099 43.9509 12.2099C43.7832 13.1935 43.515 14.4484 43.1798 16.0086C42.811 17.5687 42.5428 18.9254 42.3417 20.0107C42.1405 21.096 42.04 22.0796 42.04 22.9275C42.04 23.8093 42.3081 24.4877 42.811 24.9964C43.3474 25.5052 44.0179 25.7765 44.8225 25.7765C46.5993 25.7765 48.5102 24.8947 50.5887 23.1649L49.9518 22.0118C48.6778 22.6223 47.9068 22.8936 47.605 22.8936C47.3033 22.8936 47.1692 22.5544 47.1692 21.8761C47.1692 20.5873 47.7056 17.2974 48.7784 12.0064H49.4489V12.0403Z" fill="#0097FF"/>
<path d="M125.851 20.418C126.22 20.2485 127.695 19.5362 127.896 19.4006C129.673 18.3831 131.047 17.7047 132.187 16.1107C133.159 14.7879 133.327 13.0243 132.489 11.5659C131.584 9.93787 129.907 9.36129 128.131 9.42913C126.689 9.49696 125.415 10.1075 124.275 10.8875C122.834 11.8711 121.56 13.1599 120.722 14.6862C119.884 16.2124 119.448 18.1456 119.481 19.7397C119.481 21.6051 119.749 23.267 120.889 24.5898C122.532 26.4552 125.415 26.5908 127.594 25.7429C128.902 25.2342 130.209 24.0132 131.315 23.1653C132.321 22.3852 133.327 21.5712 134.266 20.6894C134.5 20.4859 135.372 20.011 135.439 19.6719C135.506 19.231 134.936 18.6544 134.5 18.6544C134.165 18.6544 133.964 18.8918 133.696 19.0614C133.36 19.2988 133.025 19.5023 132.69 19.7736C130.544 21.3338 126.521 25.6751 124.745 21.266C124.711 21.0625 125.583 20.5198 125.851 20.418ZM125.18 14.347C125.583 13.1938 126.019 12.1085 127.225 12.0746C128.231 12.0746 128.332 13.0582 128.332 14.0078C128.332 14.6523 128.03 15.7715 127.628 16.4159C127.46 16.6533 127.225 16.9586 127.024 17.196C126.253 17.9082 125.382 18.5187 124.544 19.1292C124.544 18.4509 124.611 17.5351 124.678 16.8907C124.745 16.0767 124.946 14.9914 125.18 14.347Z" fill="#0097FF"/>
<path d="M118.308 12.0406C117.236 17.3316 116.699 20.5876 116.699 21.9103C116.699 22.5886 116.833 22.9278 117.135 22.9278C117.437 22.9278 118.811 22.3512 120.085 21.7747L120.722 22.9278C119.214 24.047 116.364 25.8446 114.319 25.8446C113.514 25.8446 112.844 25.5733 112.307 25.0645C111.771 24.5558 111.536 23.8436 111.536 22.9956C111.536 22.1477 111.637 21.1642 111.838 20.0788C112.039 18.9935 112.307 17.6708 112.676 16.0767C113.011 14.5165 113.28 13.2277 113.447 12.2781C113.079 12.312 111.972 12.3459 110.765 12.3459H110.732C110.531 12.3459 110.33 12.3459 110.095 12.3798C109.693 12.3798 109.324 12.4137 108.955 12.4137C108.921 12.2781 108.854 12.1424 108.754 12.0406C108.586 11.5997 108.184 11.2266 107.614 11.1249C107.513 11.091 107.413 11.0571 107.312 11.0231C107.413 10.6501 107.078 10.1413 106.876 9.86999C107.011 10.0396 107.681 9.97174 107.916 10.0057C108.352 10.0735 108.888 10.1413 109.625 10.2092C110.899 10.3109 112.173 10.2092 113.447 10.2092C113.548 10.2092 113.615 10.2092 113.715 10.2092C113.917 8.92033 113.984 7.73325 113.984 6.58009L113.95 5.49477V5.39302C115.76 4.74861 117.504 4.44336 119.113 4.44336C119.214 4.91819 119.247 5.49477 119.247 6.20701C119.247 6.91926 119.046 8.242 118.644 10.2092H122.063C122.03 10.7857 121.828 11.498 121.46 12.2781C120.555 12.1763 119.716 12.1424 118.945 12.1424H118.308V12.0406Z" fill="#0097FF"/>
<path d="M76.3353 9.53051C77.0058 8.61477 77.3411 7.46161 77.3411 6.07104C77.3411 4.68047 76.8717 3.66297 75.8995 3.05248C74.9273 2.40807 73.4522 2.10282 71.4407 2.10282C68.457 2.10282 66.0097 2.6794 64.0988 3.83256C62.1879 4.98571 61.2492 6.24062 61.2492 7.56336C61.2492 8.24169 61.5174 8.78435 62.0203 9.22527C62.5232 9.63226 63.0596 9.90359 63.5624 10.0732C63.4954 10.9889 63.1937 11.8707 62.6237 12.6847C61.7186 12.5152 60.8805 12.0403 60.1094 11.2263C59.3383 10.4123 58.936 9.36093 58.936 8.03819C58.936 5.73187 60.21 3.79864 62.7578 2.2724C65.3057 0.746161 68.5911 0 72.6476 0C75.7654 0 78.2127 0.508746 80.0566 1.49232C81.8669 2.4759 82.8056 4.00214 82.8056 6.07104C82.8056 7.66511 82.2692 9.02177 81.1629 10.0732C80.0566 11.1246 78.6485 11.9386 76.9723 12.4812C78.682 12.7526 80.023 13.397 81.0288 14.4484C82.9061 13.9396 84.6159 13.7022 86.2251 13.7022L87.9348 13.804C87.9684 13.9736 88.0019 14.1431 88.0019 14.3127C88.0019 15.1267 87.9013 15.8051 87.6666 16.2799C87.0297 16.1442 86.1916 16.0764 85.1188 16.0764C84.046 16.0764 83.1073 16.212 82.2692 16.4834C82.5709 17.3652 82.7385 18.281 82.7385 19.2984C82.7385 21.7065 82.0345 23.7076 80.5929 25.2677C79.1514 26.8279 77.5422 27.608 75.6984 27.608C74.4244 27.608 73.3851 27.2349 72.547 26.4548C71.7089 25.6747 71.2731 24.5894 71.2731 23.131C71.2731 21.6726 71.8095 20.282 72.8823 18.9932C73.9551 17.6705 75.2625 16.653 76.8047 15.9068C76.2012 14.3127 75.0949 13.5327 73.5528 13.5327H73.3181C73.184 12.9222 73.2175 12.2099 73.4187 11.4298C73.7539 11.4298 74.0892 11.3959 74.3574 11.3281C74.9608 11.0228 75.6648 10.4802 76.3353 9.53051ZM67.4513 7.29203C67.4513 6.85112 67.3842 6.51195 67.2837 6.30845C67.1831 6.10496 66.9484 5.79971 66.6132 5.39271L66.6467 5.1553C67.8871 4.40913 69.4292 4.06997 71.2731 4.06997C72.0106 4.06997 72.547 4.1378 72.8823 4.23955C72.9829 4.47697 73.0499 4.98571 73.0499 5.73187C73.0499 6.51195 72.4465 9.36093 71.2396 14.2788C70.0327 19.1967 69.3287 22.8936 69.1275 25.3016C67.753 25.7086 66.2109 25.9121 64.5346 25.9121C64.1324 25.9121 63.8306 25.8782 63.663 25.8104C63.7636 24.3181 64.4341 21.2317 65.641 16.5173C66.8478 11.8029 67.4513 8.71652 67.4513 7.29203ZM74.7597 24.4877C75.3966 24.4877 75.9665 23.9111 76.4359 22.724C76.9388 21.5369 77.1734 20.2481 77.1734 18.7558L77.1399 18.1453C76.2683 18.4844 75.4637 19.0949 74.6591 19.9429C73.888 20.8247 73.4857 21.7404 73.4857 22.7579C73.4857 23.3345 73.6198 23.7754 73.888 24.0467C74.1897 24.352 74.4579 24.4877 74.7597 24.4877Z" fill="#0097FF"/>
<path d="M84.2471 22.9957C84.2471 21.9782 84.5488 20.2484 85.1522 17.8064C85.7557 15.3645 86.0574 13.8721 86.0574 13.2956C86.0574 12.7529 85.6216 12.0067 84.7835 11.091L84.817 10.6162C86.3926 10.277 88.5047 10.1074 91.0861 10.1074C91.1867 10.4127 91.2537 10.9553 91.2537 11.7693C91.2537 12.5833 90.9185 14.2791 90.2815 16.9246C89.611 19.5362 89.3093 21.1642 89.3093 21.8086C89.3093 22.453 89.544 22.7582 90.0133 22.7582C90.6838 22.7582 91.4884 22.5208 92.36 22.0121C92.4606 21.4355 92.6953 20.3502 93.0641 18.7561C93.9022 14.9575 94.338 12.2781 94.338 10.6501C95.1426 10.3109 96.6177 10.1413 98.7632 10.1413H99.4337C99.4337 11.2606 99.0985 13.4312 98.4615 16.6533C97.791 19.8754 97.4893 21.7747 97.4893 22.3173C97.4893 22.86 97.5899 23.1652 97.8245 23.1652C97.9586 23.1652 98.6291 22.8939 99.836 22.3173L100.507 23.4366C98.428 25.2002 96.6177 26.0481 95.042 26.0481C94.3045 26.0481 93.6675 25.8446 93.1311 25.4037C92.5947 24.9628 92.293 24.4202 92.2259 23.7418C90.3486 25.302 88.6053 26.0821 87.0631 26.0821C86.2586 26.0821 85.5881 25.8107 85.0517 25.2681C84.5153 24.7932 84.2471 24.0132 84.2471 22.9957Z" fill="#0097FF"/>
<path d="M110.263 18.7557C109.827 18.0095 109.491 17.4669 109.257 17.1955C108.989 16.9242 108.787 16.7207 108.62 16.5511C110.028 14.9571 110.765 13.7021 110.765 12.7864C110.765 12.6507 110.765 12.4812 110.732 12.3455C110.631 11.6332 110.263 11.0567 109.659 10.6158C109.257 10.3105 108.72 10.107 108.117 9.97134C107.581 9.86959 107.011 9.80176 106.34 9.80176C104.865 9.80176 103.591 10.1409 102.518 10.7853C101.479 11.4297 100.943 12.3455 100.943 13.5326C100.943 14.7196 101.881 16.3137 103.792 18.3148C105.67 20.3158 106.642 21.8421 106.642 22.9613C106.642 23.7075 106.206 24.1145 105.334 24.2162C104.597 22.3169 103.625 20.9263 102.451 20.0784C101.881 20.248 101.211 20.6889 100.373 21.4351C99.5681 22.1812 99.1323 22.7239 99.1323 23.0631C99.1323 23.6057 99.6352 24.2162 100.574 24.9285C101.546 25.6407 102.854 25.9799 104.53 25.9799C106.172 25.9799 107.681 25.5051 108.955 24.5554C110.263 23.6057 110.899 22.3847 110.899 20.8924C110.899 20.2141 110.698 19.5019 110.263 18.7557ZM107.513 15.2962L106.977 14.8214C105.938 13.8717 105.435 13.1595 105.435 12.6168C105.435 12.3455 105.603 12.0742 105.971 11.8707C106.34 11.6332 106.776 11.5315 107.312 11.5315C107.983 11.5315 108.486 11.6672 108.72 12.0063C108.821 12.1081 108.888 12.2437 108.922 12.3794C108.955 12.5151 108.989 12.6507 108.989 12.7864C108.989 13.6004 108.519 14.4483 107.513 15.2962Z" fill="#0097FF"/>
<path d="M133.16 26.1839H132.925C132.891 25.9804 132.858 25.5734 132.858 24.8951C132.858 24.2168 133.16 22.4192 133.797 19.4346C134.434 16.4838 134.735 14.788 134.735 14.3471C134.735 13.6009 134.4 12.8209 133.763 11.939L133.461 11.4981L133.495 11.0233C134.769 10.6841 136.78 10.4806 139.563 10.4806C139.831 11.0911 139.999 11.9729 139.999 13.0583C140.267 12.6174 140.803 12.0747 141.608 11.3624C142.412 10.6502 143.251 10.311 144.122 10.311C145.396 10.311 146 11.4303 146 13.6348C145.899 13.7705 145.731 13.974 145.53 14.1775C145.329 14.4149 144.927 14.7202 144.323 15.1272C143.72 15.5342 143.15 15.7716 142.58 15.8733C142.547 15.8733 142.345 15.5681 141.977 14.9237C141.608 14.2793 141.306 13.974 141.139 13.974C140.569 14.1775 140.032 14.5506 139.596 15.0254C138.524 19.9094 137.987 23.0975 137.987 24.522C137.987 25.0308 137.987 25.4038 138.021 25.6073C137.216 26.0143 135.607 26.1839 133.16 26.1839Z" fill="#0097FF"/>
</svg>
